<svg xmlns="http://www.w3.org/2000/svg" width="49.666667196485605" height="50.00000039736415" fill="none"><rect id="backgroundrect" width="100%" height="100%" x="0" y="0" fill="none" stroke="none" class="" style=""/>



































<g class="currentLayer" style=""><title>Layer 1</title><path d="M27,46.66667175292969 C38.04600000000005,46.66667175292969 47,37.71267175292968 47,26.666671752929688 C47,15.620671752929695 38.04600000000005,6.6666717529296875 27,6.6666717529296875 C15.95399999999995,6.6666717529296875 7,15.620671752929695 7,26.666671752929688 C7,37.71267175292968 15.95399999999995,46.66667175292969 27,46.66667175292969 z" fill="#5A31FC" id="svg_3" class=""/><path d="M32.56899999999996,27.23467175292967 L23.517000000000053,36.285671752929716 C22.94100000000003,36.86167175292968 22.008000000000038,36.86167175292968 21.432000000000016,36.285671752929716 C20.855999999999995,35.709671752929694 20.855999999999995,34.7766717529297 21.432000000000016,34.20067175292968 L29.44100000000003,26.191671752929665 L21.432000000000016,18.18267175292968 C20.863000000000056,17.60567175292968 20.866999999999962,16.677671752929683 21.440000000000055,16.10567175292968 C22.013000000000034,15.532671752929701 22.940000000000055,15.529671752929687 23.517000000000053,16.098671752929675 L32.56899999999996,25.150671752929668 C33.144000000000005,25.72667175292969 33.144000000000005,26.658671752929706 32.56899999999996,27.23467175292967 V27.23467175292967 z" fill="white" id="svg_4" class=""/></g></svg>